<svg width="103" height="32" viewBox="0 0 103 32" fill="none" xmlns="http://www.w3.org/2000/svg">
<path d="M34.2424 6.27881C33.3994 6.27881 32.9633 6.66891 32.9633 7.44911V23.9168C32.9633 24.7249 33.3994 25.115 34.2424 25.115H44.8527C48.3701 25.115 50.9573 23.9447 52.7596 22.0499C54.3294 20.4059 55.2887 18.1768 55.2887 15.6969C55.2887 12.9662 54.0678 10.4863 52.1201 8.75872C50.3759 7.22619 48.0213 6.27881 44.8527 6.27881H34.2424ZM44.8527 11.2665C46.626 11.2665 47.7306 11.7402 48.5736 12.4925C49.4748 13.3006 50.0271 14.4709 50.0271 15.7248C50.0271 16.8672 49.562 17.926 48.8062 18.7062C47.9632 19.5979 46.7132 20.1552 44.8527 20.1552H38.6028C38.3412 20.1552 38.2249 20.0437 38.2249 19.7651V11.6566C38.2249 11.378 38.3412 11.2665 38.6028 11.2665H44.8527Z" fill="#FF4975"/>
<path d="M59.1686 6.27881C58.2965 6.27881 57.8604 6.66891 57.8604 7.44911V23.9168C57.8604 24.7249 58.2965 25.115 59.1686 25.115H73.4998C75.8254 25.115 77.337 24.3905 78.3544 23.2481C79.1974 22.3007 79.7207 21.0747 79.7207 19.7372C79.7207 18.0096 78.9939 16.3656 77.5405 15.6412C78.8195 14.8331 79.5172 13.4399 79.5172 11.8238C79.5172 10.2355 78.9358 8.98163 78.0347 8.06212C76.9009 6.89182 75.2731 6.27881 73.2091 6.27881H59.1686ZM63.122 17.3687H72.2498C73.0347 17.3687 73.4417 17.5638 73.7614 17.8982C74.0231 18.1768 74.1975 18.539 74.1975 18.9291C74.1975 19.3192 74.0521 19.6815 73.7905 19.988C73.4998 20.3224 73.0347 20.5453 72.2498 20.5453H63.529C63.2383 20.5453 63.122 20.4059 63.122 20.1273V17.3687ZM63.122 13.9972V11.4337C63.122 11.155 63.2383 11.0157 63.529 11.0157H72.2789C73.0056 11.0157 73.4417 11.2386 73.7324 11.573C73.9359 11.8238 74.0812 12.1581 74.0812 12.4925C74.0812 12.8269 73.9359 13.1613 73.7324 13.412C73.4417 13.7743 73.0056 13.9972 72.2789 13.9972H63.122Z" fill="#FF4975"/>
<path d="M81.501 6.27881V11.2665H93.1578C93.3613 11.2665 93.4776 11.378 93.4776 11.5173C93.4776 11.6845 93.3904 11.7681 93.1869 11.8795L89.7858 13.9415C89.0009 14.4151 88.5939 14.8331 88.5939 15.6133C88.5939 16.4771 88.9718 17.2573 90.5125 17.2573H94.466C95.7741 17.2573 96.2392 17.8982 96.2392 18.762C96.2392 19.6257 95.7741 20.2945 94.466 20.2945H81.4428V25.115H96.0357C100.047 25.115 102.315 22.4679 102.315 19.5422C102.315 16.1149 100.222 14.443 97.1985 14.1365C97.0531 14.1086 96.995 14.025 96.995 13.9136C96.995 13.8579 97.0241 13.7464 97.1113 13.6907L100.309 11.4615C101.268 10.7649 101.791 10.0683 101.791 9.03736C101.791 7.47697 100.687 6.27881 98.5066 6.27881H81.501Z" fill="#FF4975"/>
<path fill-rule="evenodd" clip-rule="evenodd" d="M12.3662 0.421116C13.3387 -0.140371 14.9155 -0.140372 15.888 0.421115L26.8185 6.73183C27.791 7.29331 27.791 8.20366 26.8185 8.76515L15.888 15.0759C14.9155 15.6374 13.3387 15.6374 12.3662 15.0759L1.43575 8.76515C0.463226 8.20367 0.463225 7.29332 1.43575 6.73183L12.3662 0.421116ZM14.8009 3.62529C14.515 3.46023 14.2102 3.46543 13.8965 3.64659L7.2736 7.47031C6.94862 7.65794 6.93961 7.83389 7.2255 7.99895L10.8238 10.0764C12.0166 10.7651 13.3647 10.9999 14.7379 10.9129C15.9314 10.8385 17.1533 10.5087 18.1506 9.93291C19.2488 9.29886 19.8321 8.48399 19.8664 7.70151C19.8913 7.00416 19.4737 6.32316 18.3992 5.70276L14.8009 3.62529ZM16.3933 6.86088C16.9946 7.20807 17.1787 7.53434 17.1621 7.87409C17.1427 8.23816 16.8593 8.61804 16.3551 8.90919C15.8956 9.17445 15.312 9.32924 14.7419 9.36241C14.0975 9.40439 13.4494 9.28905 12.8185 8.92478L10.699 7.70106C10.6102 7.64984 10.6156 7.60119 10.7277 7.53649L13.9887 5.65375C14.1008 5.58905 14.185 5.58593 14.2737 5.63716L16.3933 6.86088ZM1.08189 9.85989C0.48438 9.51386 0 9.79437 0 10.4864V23.7958C0 24.4879 0.484378 25.3294 1.08189 25.6754L11.4911 31.7036C12.6861 32.3956 13.6549 31.8346 13.6549 30.4505V19.6473C13.6549 18.2632 12.6861 16.5801 11.4911 15.888L1.08189 9.85989ZM9.96806 18.9599L2.73097 14.7687V16.9829L9.96806 21.174C10.496 21.4797 10.9239 21.2319 10.9239 20.6205C10.9239 20.0091 10.496 19.2656 9.96806 18.9599ZM2.73097 20.4623L9.96806 24.6535C10.496 24.9592 10.9239 25.7027 10.9239 26.3141C10.9239 26.9255 10.496 27.1733 9.96806 26.8676L2.73097 22.6765V20.4623ZM16.7632 15.888C15.5682 16.5801 14.5994 18.2632 14.5994 19.6473V21.0949L25.5232 14.7688V16.9829L14.5994 23.3091V26.7885L25.5232 20.4623V22.6765L14.5994 29.0026V30.4505C14.5994 31.8346 15.5681 32.3956 16.7632 31.7036L27.1724 25.6754C27.7699 25.3294 28.2543 24.4879 28.2543 23.7958V10.4864C28.2543 9.79438 27.7699 9.51387 27.1724 9.85989L16.7632 15.888Z" fill="#FF4975"/>
</svg>
