<svg width="131" height="41" viewBox="0 0 131 41" fill="none" xmlns="http://www.w3.org/2000/svg">
<path d="M43.6297 8C42.5556 8 42 8.49704 42 9.49113V30.4734C42 31.503 42.5556 32 43.6297 32H57.1488C61.6305 32 64.927 30.5089 67.2234 28.0947C69.2234 26 70.4457 23.1598 70.4457 20C70.4457 16.5207 68.8901 13.3609 66.4085 11.1598C64.1862 9.2071 61.186 8 57.1488 8H43.6297ZM57.1488 14.355C59.4082 14.355 60.8157 14.9586 61.8898 15.9172C63.038 16.9467 63.7417 18.4379 63.7417 20.0355C63.7417 21.4911 63.1491 22.8402 62.1861 23.8343C61.112 24.9704 59.5193 25.6805 57.1488 25.6805H49.1855C48.8522 25.6805 48.704 25.5385 48.704 25.1834V14.8521C48.704 14.497 48.8522 14.355 49.1855 14.355H57.1488Z" fill="#3B38E6"/>
<path d="M75.3892 8C74.2781 8 73.7225 8.49704 73.7225 9.49113V30.4734C73.7225 31.503 74.2781 32 75.3892 32H93.6493C96.6124 32 98.5384 31.0769 99.8348 29.6213C100.909 28.4142 101.576 26.8521 101.576 25.1479C101.576 22.9467 100.65 20.8521 98.7977 19.929C100.427 18.8994 101.316 17.1243 101.316 15.0651C101.316 13.0414 100.576 11.4438 99.4274 10.2722C97.9828 8.78107 95.9087 8 93.2789 8H75.3892ZM80.4265 22.1302H92.0566C93.0567 22.1302 93.5752 22.3787 93.9827 22.8047C94.316 23.1598 94.5382 23.6213 94.5382 24.1183C94.5382 24.6154 94.3531 25.0769 94.0197 25.4675C93.6493 25.8935 93.0567 26.1775 92.0566 26.1775H80.945C80.5747 26.1775 80.4265 26 80.4265 25.645V22.1302ZM80.4265 17.8343V14.568C80.4265 14.213 80.5747 14.0355 80.945 14.0355H92.0937C93.0197 14.0355 93.5752 14.3195 93.9456 14.7456C94.2049 15.0651 94.3901 15.4911 94.3901 15.9172C94.3901 16.3432 94.2049 16.7692 93.9456 17.0888C93.5752 17.5503 93.0197 17.8343 92.0937 17.8343H80.4265Z" fill="#3B38E6"/>
<path d="M103.844 8V14.355H118.696C118.956 14.355 119.104 14.497 119.104 14.6746C119.104 14.8876 118.993 14.9941 118.733 15.1361L114.4 17.7633C113.4 18.3669 112.881 18.8994 112.881 19.8935C112.881 20.9941 113.363 21.9882 115.326 21.9882H120.363C122.03 21.9882 122.623 22.8047 122.623 23.9053C122.623 25.0059 122.03 25.858 120.363 25.858H103.77V32H122.363C127.475 32 130.364 28.6272 130.364 24.8994C130.364 20.5325 127.697 18.4024 123.845 18.0118C123.66 17.9763 123.586 17.8698 123.586 17.7278C123.586 17.6568 123.623 17.5148 123.734 17.4438L127.808 14.6036C129.03 13.716 129.697 12.8284 129.697 11.5148C129.697 9.52663 128.289 8 125.512 8H103.844Z" fill="#3B38E6"/>
<path fill-rule="evenodd" clip-rule="evenodd" d="M15.7563 0.536562C16.9955 -0.178853 19.0045 -0.178854 20.2437 0.536561L34.1707 8.57731C35.4098 9.29273 35.4098 10.4526 34.1707 11.1681L20.2437 19.2088C19.0045 19.9242 16.9955 19.9242 15.7563 19.2088L1.82935 11.1681C0.590217 10.4526 0.590215 9.29273 1.82935 8.57732L15.7563 0.536562ZM18.8585 4.61914C18.4942 4.40883 18.1059 4.41546 17.7061 4.64628L9.26762 9.51825C8.85355 9.75731 8.84206 9.9815 9.20633 10.1918L13.7911 12.8388C15.3109 13.7163 17.0285 14.0155 18.7782 13.9046C20.299 13.8098 21.8557 13.3896 23.1265 12.656C24.5258 11.8481 25.269 10.8098 25.3127 9.81283C25.3443 8.92431 24.8124 8.05661 23.4432 7.26614L18.8585 4.61914ZM20.8874 8.74174C21.6536 9.18412 21.8882 9.59984 21.8669 10.0327C21.8423 10.4966 21.4812 10.9806 20.8387 11.3516C20.2533 11.6896 19.5097 11.8868 18.7834 11.9291C17.9622 11.9825 17.1365 11.8356 16.3326 11.3714L13.632 9.81226C13.519 9.74699 13.5258 9.68501 13.6686 9.60257L17.8236 7.20368C17.9664 7.12125 18.0737 7.11728 18.1868 7.18255L20.8874 8.74174ZM1.37849 12.5629C0.617169 12.122 0 12.4794 0 13.3612V30.3193C0 31.201 0.617168 32.2733 1.37848 32.7142L14.6413 40.3949C16.1639 41.2767 17.3983 40.5619 17.3983 38.7983V25.0335C17.3983 23.2699 16.1639 21.1254 14.6413 20.2436L1.37849 12.5629ZM12.7007 24.1576L3.47965 18.8175V21.6387L12.7007 26.9787C13.3733 27.3683 13.9186 27.0525 13.9186 26.2735C13.9186 25.4944 13.3734 24.5471 12.7007 24.1576ZM3.47965 26.072L12.7007 31.4121C13.3734 31.8016 13.9186 32.7489 13.9186 33.5279C13.9186 34.307 13.3734 34.6227 12.7007 34.2332L3.47965 28.8931L3.47965 26.072ZM21.3587 20.2436C19.8361 21.1254 18.6017 23.2699 18.6017 25.0335V26.8779L32.5202 18.8175V21.6387L18.6017 29.6991V34.1323L32.5202 26.0719V28.8931L18.6017 36.9535V38.7983C18.6017 40.5619 19.8361 41.2767 21.3587 40.3949L34.6215 32.7142C35.3828 32.2733 36 31.2011 36 30.3193V13.3612C36 12.4794 35.3828 12.122 34.6215 12.5629L21.3587 20.2436Z" fill="#3B38E6"/>
</svg>
