<svg width="629" height="326" viewBox="0 0 629 326" fill="none" xmlns="http://www.w3.org/2000/svg">
<path d="M313.7 107C313.7 106.613 313.387 106.3 313 106.3C312.613 106.3 312.3 106.613 312.3 107H313.7ZM130 163.5L134.95 157.11L126.941 156.018L130 163.5ZM312.3 107C312.3 113.568 309.76 118.528 305.274 122.315C300.758 126.128 294.241 128.774 286.276 130.597C270.342 134.242 248.919 134.527 226.972 134.548C205.07 134.57 182.658 134.33 164.887 136.967C155.999 138.285 148.215 140.331 142.213 143.522C136.198 146.72 131.929 151.094 130.179 157.067L131.522 157.46C133.137 151.949 137.084 147.834 142.87 144.758C148.669 141.675 156.272 139.66 165.092 138.352C182.736 135.734 205.019 135.97 226.973 135.948C248.881 135.927 270.471 135.649 286.588 131.961C294.648 130.117 301.415 127.405 306.177 123.385C310.969 119.34 313.7 113.993 313.7 107H312.3Z" fill="url(#paint0_linear_44582_26764)"/>
<path d="M494 163.5L489.05 157.11L497.059 156.018L494 163.5ZM310.3 107C310.3 106.613 310.613 106.3 311 106.3C311.387 106.3 311.7 106.613 311.7 107H310.3ZM492.478 157.46C490.863 151.949 486.916 147.834 481.13 144.758C475.331 141.675 467.728 139.66 458.908 138.352C441.264 135.734 418.981 135.97 397.027 135.948C375.119 135.927 353.529 135.649 337.412 131.961C329.352 130.117 322.585 127.405 317.823 123.385C313.031 119.34 310.3 113.993 310.3 107H311.7C311.7 113.568 314.24 118.528 318.726 122.315C323.242 126.128 329.759 128.774 337.724 130.597C353.658 134.242 375.081 134.527 397.028 134.548C418.93 134.57 441.342 134.33 459.113 136.967C468.001 138.285 475.785 140.331 481.787 143.522C487.802 146.72 492.071 151.094 493.821 157.067L492.478 157.46Z" fill="url(#paint1_linear_44582_26764)"/>
<rect y="173" width="296" height="153" rx="6" fill="#F6F6FA"/>
<path d="M0 177C0 173.686 2.68629 171 6 171H150V189C150 192.314 147.314 195 144 195H0V177Z" fill="#7A7596" fill-opacity="0.3"/>
<path d="M13.4922 187L15.2852 178.41H21.6543L21.3555 179.846H16.7559L16.3457 181.797H20.793L20.4941 183.232H16.0469L15.5078 185.564H20.5059L20.2012 187H13.4922ZM21.9062 182.025L22.1641 180.777H22.9844L23.1895 179.781L25.1172 178.621L24.666 180.777H25.6914L25.4336 182.025H24.4023L23.8574 184.633C23.7598 185.105 23.7109 185.375 23.7109 185.441C23.7109 185.57 23.752 185.672 23.834 185.746C23.916 185.816 24.0645 185.852 24.2793 185.852C24.3535 185.852 24.5391 185.838 24.8359 185.811L24.5723 187.059C24.2832 187.117 23.9863 187.146 23.6816 187.146C23.0879 187.146 22.6562 187.033 22.3867 186.807C22.1172 186.576 21.9824 186.258 21.9824 185.852C21.9824 185.66 22.0547 185.219 22.1992 184.527L22.7207 182.025H21.9062ZM27.1855 187H25.5039L27.3027 178.41H28.9844L28.3398 181.469C28.7188 181.172 29.0723 180.959 29.4004 180.83C29.7285 180.697 30.0801 180.631 30.4551 180.631C30.959 180.631 31.3574 180.775 31.6504 181.064C31.9434 181.354 32.0898 181.732 32.0898 182.201C32.0898 182.451 32.0352 182.838 31.9258 183.361L31.1641 187H29.4824L30.2617 183.291C30.3438 182.889 30.3848 182.631 30.3848 182.518C30.3848 182.311 30.3203 182.145 30.1914 182.02C30.0625 181.895 29.8867 181.832 29.6641 181.832C29.3828 181.832 29.1133 181.93 28.8555 182.125C28.5195 182.383 28.2637 182.699 28.0879 183.074C27.9902 183.281 27.8613 183.768 27.7012 184.533L27.1855 187ZM38.875 184.41H34.6562C34.6523 184.477 34.6504 184.527 34.6504 184.562C34.6504 184.977 34.7676 185.311 35.002 185.564C35.2402 185.818 35.5293 185.945 35.8691 185.945C36.4277 185.945 36.8633 185.656 37.1758 185.078L38.6816 185.33C38.3887 185.936 37.9961 186.391 37.5039 186.695C37.0156 186.996 36.4668 187.146 35.8574 187.146C35.0215 187.146 34.3418 186.883 33.8184 186.355C33.2949 185.824 33.0332 185.123 33.0332 184.252C33.0332 183.4 33.2695 182.643 33.7422 181.979C34.3867 181.08 35.3066 180.631 36.502 180.631C37.2637 180.631 37.8691 180.867 38.3184 181.34C38.7676 181.809 38.9922 182.467 38.9922 183.314C38.9922 183.721 38.9531 184.086 38.875 184.41ZM37.457 183.385C37.4609 183.311 37.4629 183.254 37.4629 183.215C37.4629 182.754 37.3594 182.408 37.1523 182.178C36.9453 181.947 36.668 181.832 36.3203 181.832C35.9727 181.832 35.6602 181.963 35.3828 182.225C35.1094 182.486 34.9238 182.873 34.8262 183.385H37.457ZM40.7031 180.777H42.2734L42.0215 181.984C42.6074 181.082 43.2422 180.631 43.9258 180.631C44.168 180.631 44.4277 180.691 44.7051 180.812L44.0605 182.189C43.9082 182.135 43.7461 182.107 43.5742 182.107C43.2852 182.107 42.9902 182.217 42.6895 182.436C42.3926 182.654 42.1602 182.947 41.9922 183.314C41.8242 183.678 41.6582 184.256 41.4941 185.049L41.084 187H39.4023L40.7031 180.777ZM50.2305 184.41H46.0117C46.0078 184.477 46.0059 184.527 46.0059 184.562C46.0059 184.977 46.123 185.311 46.3574 185.564C46.5957 185.818 46.8848 185.945 47.2246 185.945C47.7832 185.945 48.2188 185.656 48.5312 185.078L50.0371 185.33C49.7441 185.936 49.3516 186.391 48.8594 186.695C48.3711 186.996 47.8223 187.146 47.2129 187.146C46.377 187.146 45.6973 186.883 45.1738 186.355C44.6504 185.824 44.3887 185.123 44.3887 184.252C44.3887 183.4 44.625 182.643 45.0977 181.979C45.7422 181.08 46.6621 180.631 47.8574 180.631C48.6191 180.631 49.2246 180.867 49.6738 181.34C50.123 181.809 50.3477 182.467 50.3477 183.314C50.3477 183.721 50.3086 184.086 50.2305 184.41ZM48.8125 183.385C48.8164 183.311 48.8184 183.254 48.8184 183.215C48.8184 182.754 48.7148 182.408 48.5078 182.178C48.3008 181.947 48.0234 181.832 47.6758 181.832C47.3281 181.832 47.0156 181.963 46.7383 182.225C46.4648 182.486 46.2793 182.873 46.1816 183.385H48.8125ZM52.1406 180.777H53.8223L53.0547 184.463C52.9609 184.904 52.9141 185.18 52.9141 185.289C52.9141 185.469 52.9805 185.623 53.1133 185.752C53.2461 185.881 53.416 185.945 53.623 185.945C53.7715 185.945 53.918 185.918 54.0625 185.863C54.207 185.805 54.3555 185.719 54.5078 185.605C54.6602 185.488 54.7969 185.355 54.918 185.207C55.0391 185.059 55.1523 184.863 55.2578 184.621C55.332 184.441 55.4121 184.148 55.498 183.742L56.1191 180.777H57.8008L56.5 187H54.9297L55.1055 186.156C54.418 186.816 53.6699 187.146 52.8613 187.146C52.3496 187.146 51.9473 187 51.6543 186.707C51.3613 186.414 51.2148 186.021 51.2148 185.529C51.2148 185.314 51.2812 184.887 51.4141 184.246L52.1406 180.777ZM59.4355 180.777H61.0176L60.8594 181.533C61.4766 180.932 62.125 180.631 62.8047 180.631C63.2734 180.631 63.6348 180.729 63.8887 180.924C64.1426 181.119 64.3047 181.389 64.375 181.732C64.5898 181.42 64.8984 181.158 65.3008 180.947C65.7031 180.736 66.1211 180.631 66.5547 180.631C67.0508 180.631 67.4375 180.764 67.7148 181.029C67.9922 181.295 68.1309 181.646 68.1309 182.084C68.1309 182.299 68.0762 182.67 67.9668 183.197L67.1699 187H65.4883L66.2852 183.197C66.3828 182.721 66.4316 182.451 66.4316 182.389C66.4316 182.217 66.3789 182.082 66.2734 181.984C66.1719 181.883 66.0176 181.832 65.8105 181.832C65.3926 181.832 65.0195 182.053 64.6914 182.494C64.4531 182.811 64.25 183.371 64.082 184.176L63.4902 187H61.8086L62.5938 183.238C62.6836 182.805 62.7285 182.523 62.7285 182.395C62.7285 182.23 62.6719 182.096 62.5586 181.99C62.4492 181.885 62.2969 181.832 62.1016 181.832C61.918 181.832 61.7285 181.887 61.5332 181.996C61.3379 182.105 61.166 182.256 61.0176 182.447C60.873 182.639 60.748 182.885 60.6426 183.186C60.5957 183.326 60.5195 183.645 60.4141 184.141L59.8164 187H58.1348L59.4355 180.777Z" fill="#08151E"/>
<rect x="333" y="170" width="296" height="153" rx="10" fill="#F6F6FA"/>
<path opacity="0.2" d="M333 176C333 172.686 335.686 170 339 170H492V188C492 191.314 489.314 194 486 194H333V176Z" fill="#7198FA"/>
<path d="M346.521 186L348.32 177.41H350.635C351.279 177.41 351.691 177.42 351.871 177.439C352.227 177.475 352.543 177.547 352.82 177.656C353.102 177.766 353.355 177.92 353.582 178.119C353.812 178.314 354.01 178.551 354.174 178.828C354.342 179.105 354.471 179.426 354.561 179.789C354.65 180.148 354.695 180.543 354.695 180.973C354.695 181.898 354.518 182.721 354.162 183.439C353.811 184.154 353.367 184.723 352.832 185.145C352.422 185.473 351.893 185.715 351.244 185.871C350.877 185.957 350.312 186 349.551 186H346.521ZM348.578 184.617H349.475C350.123 184.617 350.592 184.578 350.881 184.5C351.174 184.418 351.441 184.268 351.684 184.049C352.031 183.732 352.324 183.311 352.562 182.783C352.801 182.256 352.92 181.635 352.92 180.92C352.92 180.311 352.82 179.854 352.621 179.549C352.426 179.24 352.184 179.035 351.895 178.934C351.691 178.863 351.33 178.828 350.811 178.828H349.785L348.578 184.617ZM355.152 186L356.951 177.41H359.887C360.523 177.41 360.969 177.43 361.223 177.469C361.645 177.527 362.002 177.645 362.295 177.82C362.588 177.996 362.811 178.23 362.963 178.523C363.115 178.816 363.191 179.141 363.191 179.496C363.191 179.973 363.059 180.387 362.793 180.738C362.527 181.086 362.117 181.35 361.562 181.529C362.004 181.65 362.348 181.867 362.594 182.18C362.844 182.488 362.969 182.838 362.969 183.229C362.969 183.744 362.822 184.234 362.529 184.699C362.236 185.16 361.832 185.492 361.316 185.695C360.801 185.898 360.096 186 359.201 186H355.152ZM357.988 180.879H359.336C359.941 180.879 360.377 180.836 360.643 180.75C360.908 180.664 361.107 180.523 361.24 180.328C361.373 180.133 361.439 179.924 361.439 179.701C361.439 179.482 361.377 179.303 361.252 179.162C361.127 179.021 360.949 178.928 360.719 178.881C360.59 178.857 360.279 178.846 359.787 178.846H358.416L357.988 180.879ZM357.209 184.617H358.914C359.629 184.617 360.107 184.572 360.35 184.482C360.596 184.389 360.791 184.236 360.936 184.025C361.084 183.814 361.158 183.592 361.158 183.357C361.158 183.072 361.053 182.838 360.842 182.654C360.631 182.467 360.279 182.373 359.787 182.373H357.678L357.209 184.617ZM363.953 183.756L365.564 183.562C365.631 184.02 365.75 184.336 365.922 184.512C366.098 184.688 366.33 184.775 366.619 184.775C367.002 184.775 367.318 184.646 367.568 184.389C367.822 184.131 367.949 183.801 367.949 183.398C367.949 183.047 367.848 182.77 367.645 182.566C367.441 182.359 367.168 182.256 366.824 182.256C366.738 182.256 366.648 182.264 366.555 182.279L366.848 180.879C366.906 180.887 366.963 180.891 367.018 180.891C367.467 180.891 367.809 180.777 368.043 180.551C368.277 180.32 368.395 180.01 368.395 179.619C368.395 179.342 368.314 179.123 368.154 178.963C367.998 178.803 367.791 178.723 367.533 178.723C367.291 178.723 367.074 178.812 366.883 178.992C366.691 179.168 366.539 179.471 366.426 179.9L364.891 179.596C365.086 178.963 365.357 178.477 365.705 178.137C366.232 177.629 366.881 177.375 367.65 177.375C368.439 177.375 369.039 177.596 369.449 178.037C369.859 178.475 370.064 179 370.064 179.613C370.064 180.059 369.934 180.461 369.672 180.82C369.41 181.18 369.051 181.443 368.594 181.611C368.957 181.803 369.225 182.051 369.396 182.355C369.568 182.66 369.654 182.979 369.654 183.311C369.654 183.943 369.43 184.525 368.98 185.057C368.367 185.783 367.576 186.146 366.607 186.146C365.881 186.146 365.281 185.939 364.809 185.525C364.34 185.107 364.055 184.518 363.953 183.756ZM380.723 186H379.076L376.756 180.229L375.549 186H373.902L375.695 177.41H377.348L379.674 183.158L380.875 177.41H382.516L380.723 186ZM388.574 183.41H384.355C384.352 183.477 384.35 183.527 384.35 183.562C384.35 183.977 384.467 184.311 384.701 184.564C384.939 184.818 385.229 184.945 385.568 184.945C386.127 184.945 386.562 184.656 386.875 184.078L388.381 184.33C388.088 184.936 387.695 185.391 387.203 185.695C386.715 185.996 386.166 186.146 385.557 186.146C384.721 186.146 384.041 185.883 383.518 185.355C382.994 184.824 382.732 184.123 382.732 183.252C382.732 182.4 382.969 181.643 383.441 180.979C384.086 180.08 385.006 179.631 386.201 179.631C386.963 179.631 387.568 179.867 388.018 180.34C388.467 180.809 388.691 181.467 388.691 182.314C388.691 182.721 388.652 183.086 388.574 183.41ZM387.156 182.385C387.16 182.311 387.162 182.254 387.162 182.215C387.162 181.754 387.059 181.408 386.852 181.178C386.645 180.947 386.367 180.832 386.02 180.832C385.672 180.832 385.359 180.963 385.082 181.225C384.809 181.486 384.623 181.873 384.525 182.385H387.156ZM389.617 181.025L389.875 179.777H390.695L390.9 178.781L392.828 177.621L392.377 179.777H393.402L393.145 181.025H392.113L391.568 183.633C391.471 184.105 391.422 184.375 391.422 184.441C391.422 184.57 391.463 184.672 391.545 184.746C391.627 184.816 391.775 184.852 391.99 184.852C392.064 184.852 392.25 184.838 392.547 184.811L392.283 186.059C391.994 186.117 391.697 186.146 391.393 186.146C390.799 186.146 390.367 186.033 390.098 185.807C389.828 185.576 389.693 185.258 389.693 184.852C389.693 184.66 389.766 184.219 389.91 183.527L390.432 181.025H389.617ZM399.695 186H398.113L397.809 182.039L395.91 186H394.352L393.572 179.777H395.066L395.5 183.949L397.439 179.777H398.969L399.18 183.949L401.107 179.777H402.795L399.695 186ZM402.777 183.416C402.777 182.264 403.102 181.346 403.75 180.662C404.402 179.975 405.258 179.631 406.316 179.631C407.234 179.631 407.951 179.885 408.467 180.393C408.982 180.896 409.24 181.576 409.24 182.432C409.24 183.439 408.918 184.311 408.273 185.045C407.629 185.779 406.766 186.146 405.684 186.146C405.098 186.146 404.578 186.029 404.125 185.795C403.672 185.561 403.334 185.229 403.111 184.799C402.889 184.369 402.777 183.908 402.777 183.416ZM407.57 182.215C407.57 181.816 407.453 181.498 407.219 181.26C406.988 181.018 406.689 180.896 406.322 180.896C405.959 180.896 405.637 181.01 405.355 181.236C405.074 181.459 404.855 181.785 404.699 182.215C404.543 182.641 404.465 183.033 404.465 183.393C404.465 183.838 404.586 184.191 404.828 184.453C405.07 184.715 405.375 184.846 405.742 184.846C406.203 184.846 406.59 184.648 406.902 184.254C407.348 183.695 407.57 183.016 407.57 182.215ZM411.074 179.777H412.645L412.393 180.984C412.979 180.082 413.613 179.631 414.297 179.631C414.539 179.631 414.799 179.691 415.076 179.812L414.432 181.189C414.279 181.135 414.117 181.107 413.945 181.107C413.656 181.107 413.361 181.217 413.061 181.436C412.764 181.654 412.531 181.947 412.363 182.314C412.195 182.678 412.029 183.256 411.865 184.049L411.455 186H409.773L411.074 179.777ZM414.514 186L416.312 177.41H417.994L417.057 181.881L419.248 179.777H421.434L418.932 182.039L420.262 186H418.58L417.725 183.123L416.588 184.131L416.195 186H414.514Z" fill="#08151E"/>
<rect width="32.2461" height="4.20001" transform="matrix(0.866706 -0.498819 2.21e-08 1 389.975 265.23)" fill="url(#paint2_linear_44582_26764)"/>
<rect width="32.2461" height="4.20001" transform="matrix(0.866706 0.498819 -2.21e-08 1 362 249.145)" fill="url(#paint3_linear_44582_26764)"/>
<rect width="32.2461" height="32.2461" transform="matrix(0.866706 -0.498819 0.866706 0.498819 362.104 249.085)" fill="url(#paint4_linear_44582_26764)"/>
<path d="M387.674 243.313L385.688 244.459L383.668 243.293C382.445 242.587 380.937 242.577 379.393 243.468C377.85 244.359 377.867 245.23 379.09 245.936L380.356 246.667C381.448 247.298 382.679 247.268 383.997 246.507L388.602 243.848L387.674 243.313ZM380.98 245.996L380.07 245.47C379.281 245.015 379.333 244.574 380.321 244.004C381.309 243.433 382.081 243.398 382.87 243.853L384.804 244.97L383.113 245.946C382.333 246.397 381.717 246.422 380.98 245.996Z" fill="white"/>
<path d="M387.434 245.467L385.032 248.796C384.781 249.142 384.945 249.437 385.474 249.742C385.994 250.043 386.497 250.143 387.122 250.003L392.975 248.666L391.986 248.095L386.723 249.302C386.584 249.332 386.463 249.312 386.341 249.242C386.229 249.177 386.194 249.106 386.255 249.031L388.405 246.028L387.434 245.467Z" fill="white"/>
<path d="M394.395 249.486C393.936 249.221 393.58 249.216 393.043 249.526L389.176 251.759L390.095 252.29L393.658 250.232C393.745 250.182 393.823 250.177 393.901 250.222L396.225 251.564L392.531 253.696L393.459 254.232L397.153 252.1L398.228 252.72C399.19 253.276 399.208 253.747 398.488 254.162L395.913 255.649L396.841 256.185L399.416 254.698C400.682 253.967 400.656 253.101 399.104 252.205L394.395 249.486Z" fill="white"/>
<rect width="32.2461" height="4.20001" transform="matrix(0.866706 -0.498819 2.21e-08 1 479.975 265.23)" fill="url(#paint5_linear_44582_26764)"/>
<rect width="32.2461" height="4.20001" transform="matrix(0.866706 0.498819 -2.21e-08 1 452 249.145)" fill="url(#paint6_linear_44582_26764)"/>
<rect width="32.2461" height="32.2461" transform="matrix(0.866706 -0.498819 0.866706 0.498819 452.104 249.085)" fill="url(#paint7_linear_44582_26764)"/>
<path d="M477.674 243.313L475.688 244.459L473.668 243.293C472.445 242.587 470.937 242.577 469.393 243.468C467.85 244.359 467.867 245.23 469.09 245.936L470.356 246.667C471.448 247.298 472.679 247.268 473.997 246.507L478.602 243.848L477.674 243.313ZM470.98 245.996L470.07 245.47C469.281 245.015 469.333 244.574 470.321 244.004C471.309 243.433 472.081 243.398 472.87 243.853L474.804 244.97L473.113 245.946C472.333 246.397 471.717 246.422 470.98 245.996Z" fill="white"/>
<path d="M477.434 245.467L475.032 248.796C474.781 249.142 474.945 249.437 475.474 249.742C475.994 250.043 476.497 250.143 477.122 250.003L482.975 248.666L481.986 248.095L476.723 249.302C476.584 249.332 476.463 249.312 476.341 249.242C476.229 249.177 476.194 249.106 476.255 249.031L478.405 246.028L477.434 245.467Z" fill="white"/>
<path d="M484.395 249.486C483.936 249.221 483.58 249.216 483.043 249.526L479.176 251.759L480.095 252.29L483.658 250.232C483.745 250.182 483.823 250.177 483.901 250.222L486.225 251.564L482.531 253.696L483.459 254.232L487.153 252.1L488.228 252.72C489.19 253.276 489.208 253.747 488.488 254.162L485.913 255.649L486.841 256.185L489.416 254.698C490.682 253.967 490.656 253.101 489.104 252.205L484.395 249.486Z" fill="white"/>
<rect width="32.2461" height="4.20001" transform="matrix(0.866706 -0.498819 2.21e-08 1 569.975 264.23)" fill="url(#paint8_linear_44582_26764)"/>
<rect width="32.2461" height="4.20001" transform="matrix(0.866706 0.498819 -2.21e-08 1 542 248.145)" fill="url(#paint9_linear_44582_26764)"/>
<rect width="32.2461" height="32.2461" transform="matrix(0.866706 -0.498819 0.866706 0.498819 542.104 248.085)" fill="url(#paint10_linear_44582_26764)"/>
<path d="M567.674 242.313L565.688 243.459L563.668 242.293C562.445 241.587 560.937 241.577 559.393 242.468C557.85 243.359 557.867 244.23 559.09 244.936L560.356 245.667C561.448 246.298 562.679 246.268 563.997 245.507L568.602 242.848L567.674 242.313ZM560.98 244.996L560.07 244.47C559.281 244.015 559.333 243.574 560.321 243.004C561.309 242.433 562.081 242.398 562.87 242.853L564.804 243.97L563.113 244.946C562.333 245.397 561.717 245.422 560.98 244.996Z" fill="white"/>
<path d="M567.434 244.467L565.032 247.796C564.781 248.142 564.945 248.437 565.474 248.742C565.994 249.043 566.497 249.143 567.122 249.003L572.975 247.666L571.986 247.095L566.723 248.302C566.584 248.332 566.463 248.312 566.341 248.242C566.229 248.177 566.194 248.106 566.255 248.031L568.405 245.028L567.434 244.467Z" fill="white"/>
<path d="M574.395 248.486C573.936 248.221 573.58 248.216 573.043 248.526L569.176 250.759L570.095 251.29L573.658 249.232C573.745 249.182 573.823 249.177 573.901 249.222L576.225 250.564L572.531 252.696L573.459 253.232L577.153 251.1L578.228 251.72C579.19 252.276 579.208 252.747 578.488 253.162L575.913 254.649L576.841 255.185L579.416 253.698C580.682 252.967 580.656 252.101 579.104 251.205L574.395 248.486Z" fill="white"/>
<path d="M101.936 128H99.8711L101.621 119.653H98.6816L99.0303 117.979H106.926L106.577 119.653H103.679L101.936 128ZM105.887 124.985C105.887 123.641 106.265 122.57 107.021 121.772C107.783 120.97 108.781 120.569 110.016 120.569C111.087 120.569 111.923 120.866 112.524 121.458C113.126 122.046 113.427 122.839 113.427 123.837C113.427 125.013 113.051 126.029 112.299 126.886C111.547 127.743 110.54 128.171 109.277 128.171C108.594 128.171 107.988 128.034 107.459 127.761C106.93 127.487 106.536 127.1 106.276 126.599C106.017 126.097 105.887 125.56 105.887 124.985ZM111.479 123.584C111.479 123.119 111.342 122.748 111.068 122.47C110.799 122.187 110.451 122.046 110.022 122.046C109.599 122.046 109.223 122.178 108.895 122.442C108.566 122.702 108.311 123.083 108.129 123.584C107.947 124.081 107.855 124.539 107.855 124.958C107.855 125.478 107.997 125.89 108.279 126.195C108.562 126.501 108.917 126.653 109.346 126.653C109.883 126.653 110.335 126.423 110.699 125.963C111.219 125.311 111.479 124.518 111.479 123.584ZM114.124 128L116.223 117.979H118.185L117.091 123.194L119.647 120.74H122.197L119.278 123.379L120.83 128H118.868L117.87 124.644L116.544 125.819L116.086 128H114.124ZM129.02 124.979H124.098C124.093 125.056 124.091 125.115 124.091 125.156C124.091 125.639 124.228 126.029 124.501 126.325C124.779 126.621 125.116 126.77 125.513 126.77C126.164 126.77 126.673 126.432 127.037 125.758L128.794 126.052C128.452 126.758 127.994 127.289 127.42 127.645C126.85 127.995 126.21 128.171 125.499 128.171C124.524 128.171 123.731 127.863 123.12 127.248C122.509 126.628 122.204 125.81 122.204 124.794C122.204 123.8 122.48 122.916 123.031 122.142C123.783 121.093 124.856 120.569 126.251 120.569C127.14 120.569 127.846 120.845 128.37 121.396C128.894 121.943 129.156 122.711 129.156 123.7C129.156 124.174 129.111 124.6 129.02 124.979ZM127.365 123.782C127.37 123.696 127.372 123.63 127.372 123.584C127.372 123.046 127.251 122.643 127.01 122.374C126.768 122.105 126.445 121.971 126.039 121.971C125.633 121.971 125.269 122.123 124.945 122.429C124.626 122.734 124.41 123.185 124.296 123.782H127.365ZM131.289 120.74H133.148L132.957 121.684C133.422 121.283 133.855 120.998 134.256 120.829C134.661 120.656 135.088 120.569 135.534 120.569C136.131 120.569 136.601 120.74 136.942 121.082C137.289 121.424 137.462 121.877 137.462 122.442C137.462 122.698 137.387 123.181 137.236 123.892L136.382 128H134.42L135.281 123.878C135.409 123.263 135.473 122.896 135.473 122.777C135.473 122.527 135.397 122.331 135.247 122.189C135.101 122.044 134.896 121.971 134.632 121.971C134.345 121.971 134.026 122.091 133.675 122.333C133.324 122.575 133.048 122.894 132.848 123.29C132.702 123.573 132.538 124.149 132.355 125.02L131.733 128H129.771L131.289 120.74ZM147.976 128H146.021L145.658 119.626L144.065 128H142.206L144.298 117.979H147.237L147.545 124.999L150.963 117.979H153.937L151.838 128H149.958L151.934 119.688L147.976 128ZM156.63 122.798L154.716 122.634C154.935 121.987 155.315 121.481 155.857 121.116C156.404 120.752 157.127 120.569 158.024 120.569C158.959 120.569 159.649 120.758 160.096 121.137C160.542 121.51 160.766 121.968 160.766 122.511C160.766 122.729 160.745 122.962 160.704 123.208C160.668 123.454 160.533 124.101 160.301 125.149C160.109 126.015 160.014 126.621 160.014 126.968C160.014 127.278 160.068 127.622 160.178 128H158.271C158.193 127.736 158.145 127.462 158.127 127.18C157.84 127.499 157.509 127.745 157.136 127.918C156.762 128.087 156.386 128.171 156.008 128.171C155.406 128.171 154.91 127.975 154.518 127.583C154.126 127.187 153.93 126.678 153.93 126.059C153.93 125.366 154.144 124.812 154.572 124.397C155.005 123.983 155.775 123.732 156.883 123.646C157.817 123.568 158.441 123.475 158.756 123.365C158.838 123.092 158.879 122.873 158.879 122.709C158.879 122.499 158.795 122.324 158.626 122.183C158.457 122.041 158.207 121.971 157.874 121.971C157.523 121.971 157.245 122.044 157.04 122.189C156.84 122.331 156.703 122.534 156.63 122.798ZM158.496 124.616C158.378 124.648 158.22 124.678 158.024 124.705C157.04 124.824 156.397 124.997 156.097 125.225C155.882 125.389 155.775 125.61 155.775 125.888C155.775 126.116 155.857 126.309 156.021 126.469C156.186 126.624 156.402 126.701 156.671 126.701C156.967 126.701 157.245 126.631 157.505 126.489C157.769 126.343 157.965 126.159 158.093 125.936C158.225 125.708 158.341 125.354 158.441 124.876L158.496 124.616ZM163.199 120.74H165.059L164.867 121.684C165.332 121.283 165.765 120.998 166.166 120.829C166.572 120.656 166.998 120.569 167.444 120.569C168.041 120.569 168.511 120.74 168.853 121.082C169.199 121.424 169.372 121.877 169.372 122.442C169.372 122.698 169.297 123.181 169.146 123.892L168.292 128H166.33L167.191 123.878C167.319 123.263 167.383 122.896 167.383 122.777C167.383 122.527 167.308 122.331 167.157 122.189C167.011 122.044 166.806 121.971 166.542 121.971C166.255 121.971 165.936 122.091 165.585 122.333C165.234 122.575 164.958 122.894 164.758 123.29C164.612 123.573 164.448 124.149 164.266 125.02L163.644 128H161.682L163.199 120.74ZM172.981 122.798L171.067 122.634C171.286 121.987 171.667 121.481 172.209 121.116C172.756 120.752 173.478 120.569 174.376 120.569C175.31 120.569 176.001 120.758 176.447 121.137C176.894 121.51 177.117 121.968 177.117 122.511C177.117 122.729 177.097 122.962 177.056 123.208C177.019 123.454 176.885 124.101 176.652 125.149C176.461 126.015 176.365 126.621 176.365 126.968C176.365 127.278 176.42 127.622 176.529 128H174.622C174.545 127.736 174.497 127.462 174.479 127.18C174.191 127.499 173.861 127.745 173.487 127.918C173.114 128.087 172.738 128.171 172.359 128.171C171.758 128.171 171.261 127.975 170.869 127.583C170.477 127.187 170.281 126.678 170.281 126.059C170.281 125.366 170.495 124.812 170.924 124.397C171.357 123.983 172.127 123.732 173.234 123.646C174.169 123.568 174.793 123.475 175.107 123.365C175.189 123.092 175.23 122.873 175.23 122.709C175.23 122.499 175.146 122.324 174.978 122.183C174.809 122.041 174.558 121.971 174.226 121.971C173.875 121.971 173.597 122.044 173.392 122.189C173.191 122.331 173.054 122.534 172.981 122.798ZM174.848 124.616C174.729 124.648 174.572 124.678 174.376 124.705C173.392 124.824 172.749 124.997 172.448 125.225C172.234 125.389 172.127 125.61 172.127 125.888C172.127 126.116 172.209 126.309 172.373 126.469C172.537 126.624 172.754 126.701 173.022 126.701C173.319 126.701 173.597 126.631 173.856 126.489C174.121 126.343 174.317 126.159 174.444 125.936C174.576 125.708 174.693 125.354 174.793 124.876L174.848 124.616ZM177.903 128.383L179.975 128.684C179.975 128.893 180.009 129.05 180.077 129.155C180.146 129.265 180.255 129.356 180.405 129.429C180.56 129.506 180.77 129.545 181.034 129.545C181.449 129.545 181.782 129.463 182.032 129.299C182.219 129.171 182.372 128.966 182.49 128.684C182.563 128.506 182.657 128.118 182.771 127.521L182.839 127.18C182.16 127.745 181.458 128.027 180.733 128.027C180.022 128.027 179.439 127.777 178.983 127.275C178.528 126.774 178.3 126.04 178.3 125.074C178.3 124.222 178.455 123.44 178.765 122.729C179.075 122.019 179.51 121.481 180.07 121.116C180.631 120.752 181.203 120.569 181.786 120.569C182.269 120.569 182.711 120.697 183.112 120.952C183.513 121.207 183.826 121.565 184.049 122.025L184.322 120.74H186.161L184.903 126.79C184.698 127.761 184.525 128.453 184.384 128.868C184.243 129.283 184.081 129.613 183.898 129.859C183.716 130.105 183.486 130.311 183.208 130.475C182.93 130.643 182.602 130.764 182.224 130.837C181.845 130.91 181.435 130.946 180.993 130.946C179.968 130.946 179.193 130.771 178.669 130.42C178.145 130.069 177.883 129.486 177.883 128.67C177.883 128.583 177.89 128.488 177.903 128.383ZM180.214 124.876C180.214 125.427 180.337 125.849 180.583 126.141C180.834 126.428 181.146 126.571 181.52 126.571C181.861 126.571 182.192 126.441 182.511 126.182C182.834 125.922 183.08 125.553 183.249 125.074C183.422 124.596 183.509 124.133 183.509 123.687C183.509 123.172 183.37 122.757 183.092 122.442C182.814 122.128 182.493 121.971 182.128 121.971C181.777 121.971 181.453 122.11 181.157 122.388C180.866 122.666 180.624 123.094 180.433 123.673C180.287 124.119 180.214 124.521 180.214 124.876ZM193.633 124.979H188.711C188.706 125.056 188.704 125.115 188.704 125.156C188.704 125.639 188.841 126.029 189.114 126.325C189.392 126.621 189.729 126.77 190.126 126.77C190.778 126.77 191.286 126.432 191.65 125.758L193.407 126.052C193.065 126.758 192.607 127.289 192.033 127.645C191.464 127.995 190.823 128.171 190.112 128.171C189.137 128.171 188.344 127.863 187.733 127.248C187.123 126.628 186.817 125.81 186.817 124.794C186.817 123.8 187.093 122.916 187.645 122.142C188.396 121.093 189.47 120.569 190.864 120.569C191.753 120.569 192.459 120.845 192.983 121.396C193.507 121.943 193.77 122.711 193.77 123.7C193.77 124.174 193.724 124.6 193.633 124.979ZM191.979 123.782C191.983 123.696 191.985 123.63 191.985 123.584C191.985 123.046 191.865 122.643 191.623 122.374C191.382 122.105 191.058 121.971 190.652 121.971C190.247 121.971 189.882 122.123 189.559 122.429C189.24 122.734 189.023 123.185 188.909 123.782H191.979ZM195.813 120.74H197.659L197.475 121.622C198.195 120.92 198.951 120.569 199.744 120.569C200.291 120.569 200.713 120.683 201.009 120.911C201.305 121.139 201.494 121.453 201.576 121.854C201.827 121.49 202.187 121.185 202.656 120.938C203.126 120.692 203.613 120.569 204.119 120.569C204.698 120.569 205.149 120.724 205.473 121.034C205.796 121.344 205.958 121.754 205.958 122.265C205.958 122.515 205.894 122.948 205.767 123.563L204.837 128H202.875L203.805 123.563C203.919 123.007 203.976 122.693 203.976 122.62C203.976 122.42 203.914 122.262 203.791 122.148C203.673 122.03 203.493 121.971 203.251 121.971C202.763 121.971 202.328 122.228 201.945 122.743C201.667 123.112 201.43 123.766 201.234 124.705L200.544 128H198.582L199.498 123.611C199.603 123.105 199.655 122.777 199.655 122.627C199.655 122.436 199.589 122.278 199.457 122.155C199.329 122.032 199.152 121.971 198.924 121.971C198.71 121.971 198.489 122.035 198.261 122.162C198.033 122.29 197.832 122.465 197.659 122.688C197.491 122.912 197.345 123.199 197.222 123.55C197.167 123.714 197.078 124.085 196.955 124.664L196.258 128H194.296L195.813 120.74ZM213.881 124.979H208.959C208.954 125.056 208.952 125.115 208.952 125.156C208.952 125.639 209.089 126.029 209.362 126.325C209.64 126.621 209.978 126.77 210.374 126.77C211.026 126.77 211.534 126.432 211.898 125.758L213.655 126.052C213.313 126.758 212.855 127.289 212.281 127.645C211.712 127.995 211.071 128.171 210.36 128.171C209.385 128.171 208.592 127.863 207.981 127.248C207.371 126.628 207.065 125.81 207.065 124.794C207.065 123.8 207.341 122.916 207.893 122.142C208.645 121.093 209.718 120.569 211.112 120.569C212.001 120.569 212.707 120.845 213.231 121.396C213.756 121.943 214.018 122.711 214.018 123.7C214.018 124.174 213.972 124.6 213.881 124.979ZM212.227 123.782C212.231 123.696 212.233 123.63 212.233 123.584C212.233 123.046 212.113 122.643 211.871 122.374C211.63 122.105 211.306 121.971 210.9 121.971C210.495 121.971 210.13 122.123 209.807 122.429C209.488 122.734 209.271 123.185 209.157 123.782H212.227ZM216.15 120.74H218.01L217.818 121.684C218.283 121.283 218.716 120.998 219.117 120.829C219.523 120.656 219.949 120.569 220.396 120.569C220.993 120.569 221.462 120.74 221.804 121.082C222.15 121.424 222.323 121.877 222.323 122.442C222.323 122.698 222.248 123.181 222.098 123.892L221.243 128H219.281L220.143 123.878C220.27 123.263 220.334 122.896 220.334 122.777C220.334 122.527 220.259 122.331 220.108 122.189C219.963 122.044 219.757 121.971 219.493 121.971C219.206 121.971 218.887 122.091 218.536 122.333C218.185 122.575 217.91 122.894 217.709 123.29C217.563 123.573 217.399 124.149 217.217 125.02L216.595 128H214.633L216.15 120.74ZM223.656 122.196L223.957 120.74H224.914L225.153 119.578L227.402 118.225L226.876 120.74H228.072L227.771 122.196H226.568L225.933 125.238C225.819 125.79 225.762 126.104 225.762 126.182C225.762 126.332 225.81 126.451 225.905 126.537C226.001 126.619 226.174 126.66 226.425 126.66C226.511 126.66 226.728 126.644 227.074 126.612L226.767 128.068C226.429 128.137 226.083 128.171 225.728 128.171C225.035 128.171 224.531 128.039 224.217 127.774C223.902 127.506 223.745 127.134 223.745 126.66C223.745 126.437 223.829 125.922 223.998 125.115L224.606 122.196H223.656Z" fill="#08151E" fill-opacity="0.85"/>
<path d="M400.608 128L402.707 117.979H405.407C406.159 117.979 406.64 117.99 406.85 118.013C407.264 118.054 407.633 118.138 407.957 118.266C408.285 118.393 408.581 118.573 408.846 118.806C409.115 119.034 409.345 119.309 409.536 119.633C409.732 119.956 409.882 120.33 409.987 120.754C410.092 121.173 410.145 121.633 410.145 122.135C410.145 123.215 409.937 124.174 409.522 125.013C409.112 125.847 408.595 126.51 407.971 127.002C407.492 127.385 406.875 127.667 406.118 127.85C405.69 127.95 405.031 128 404.143 128H400.608ZM403.008 126.387H404.054C404.81 126.387 405.357 126.341 405.694 126.25C406.036 126.154 406.348 125.979 406.631 125.724C407.036 125.354 407.378 124.862 407.656 124.247C407.934 123.632 408.073 122.907 408.073 122.073C408.073 121.362 407.957 120.829 407.725 120.474C407.497 120.114 407.214 119.874 406.877 119.756C406.64 119.674 406.218 119.633 405.612 119.633H404.416L403.008 126.387ZM413.446 122.798L411.532 122.634C411.751 121.987 412.132 121.481 412.674 121.116C413.221 120.752 413.943 120.569 414.841 120.569C415.775 120.569 416.465 120.758 416.912 121.137C417.359 121.51 417.582 121.968 417.582 122.511C417.582 122.729 417.562 122.962 417.521 123.208C417.484 123.454 417.35 124.101 417.117 125.149C416.926 126.015 416.83 126.621 416.83 126.968C416.83 127.278 416.885 127.622 416.994 128H415.087C415.009 127.736 414.962 127.462 414.943 127.18C414.656 127.499 414.326 127.745 413.952 127.918C413.578 128.087 413.202 128.171 412.824 128.171C412.223 128.171 411.726 127.975 411.334 127.583C410.942 127.187 410.746 126.678 410.746 126.059C410.746 125.366 410.96 124.812 411.389 124.397C411.822 123.983 412.592 123.732 413.699 123.646C414.633 123.568 415.258 123.475 415.572 123.365C415.654 123.092 415.695 122.873 415.695 122.709C415.695 122.499 415.611 122.324 415.442 122.183C415.274 122.041 415.023 121.971 414.69 121.971C414.34 121.971 414.062 122.044 413.856 122.189C413.656 122.331 413.519 122.534 413.446 122.798ZM415.312 124.616C415.194 124.648 415.037 124.678 414.841 124.705C413.856 124.824 413.214 124.997 412.913 125.225C412.699 125.389 412.592 125.61 412.592 125.888C412.592 126.116 412.674 126.309 412.838 126.469C413.002 126.624 413.218 126.701 413.487 126.701C413.784 126.701 414.062 126.631 414.321 126.489C414.586 126.343 414.782 126.159 414.909 125.936C415.041 125.708 415.158 125.354 415.258 124.876L415.312 124.616ZM418.963 122.196L419.264 120.74H420.221L420.46 119.578L422.709 118.225L422.183 120.74H423.379L423.078 122.196H421.875L421.239 125.238C421.125 125.79 421.068 126.104 421.068 126.182C421.068 126.332 421.116 126.451 421.212 126.537C421.308 126.619 421.481 126.66 421.731 126.66C421.818 126.66 422.035 126.644 422.381 126.612L422.073 128.068C421.736 128.137 421.39 128.171 421.034 128.171C420.341 128.171 419.838 128.039 419.523 127.774C419.209 127.506 419.052 127.134 419.052 126.66C419.052 126.437 419.136 125.922 419.305 125.115L419.913 122.196H418.963ZM425.901 122.798L423.987 122.634C424.206 121.987 424.587 121.481 425.129 121.116C425.676 120.752 426.398 120.569 427.296 120.569C428.23 120.569 428.921 120.758 429.367 121.137C429.814 121.51 430.037 121.968 430.037 122.511C430.037 122.729 430.017 122.962 429.976 123.208C429.939 123.454 429.805 124.101 429.572 125.149C429.381 126.015 429.285 126.621 429.285 126.968C429.285 127.278 429.34 127.622 429.449 128H427.542C427.465 127.736 427.417 127.462 427.398 127.18C427.111 127.499 426.781 127.745 426.407 127.918C426.034 128.087 425.658 128.171 425.279 128.171C424.678 128.171 424.181 127.975 423.789 127.583C423.397 127.187 423.201 126.678 423.201 126.059C423.201 125.366 423.415 124.812 423.844 124.397C424.277 123.983 425.047 123.732 426.154 123.646C427.089 123.568 427.713 123.475 428.027 123.365C428.109 123.092 428.15 122.873 428.15 122.709C428.15 122.499 428.066 122.324 427.897 122.183C427.729 122.041 427.478 121.971 427.146 121.971C426.795 121.971 426.517 122.044 426.312 122.189C426.111 122.331 425.974 122.534 425.901 122.798ZM427.768 124.616C427.649 124.648 427.492 124.678 427.296 124.705C426.312 124.824 425.669 124.997 425.368 125.225C425.154 125.389 425.047 125.61 425.047 125.888C425.047 126.116 425.129 126.309 425.293 126.469C425.457 126.624 425.674 126.701 425.942 126.701C426.239 126.701 426.517 126.631 426.776 126.489C427.041 126.343 427.237 126.159 427.364 125.936C427.496 125.708 427.613 125.354 427.713 124.876L427.768 124.616ZM440.599 128H438.644L438.281 119.626L436.688 128H434.829L436.921 117.979H439.86L440.168 124.999L443.586 117.979H446.56L444.461 128H442.581L444.557 119.688L440.599 128ZM449.253 122.798L447.339 122.634C447.558 121.987 447.938 121.481 448.48 121.116C449.027 120.752 449.75 120.569 450.647 120.569C451.582 120.569 452.272 120.758 452.719 121.137C453.165 121.51 453.389 121.968 453.389 122.511C453.389 122.729 453.368 122.962 453.327 123.208C453.291 123.454 453.156 124.101 452.924 125.149C452.732 126.015 452.637 126.621 452.637 126.968C452.637 127.278 452.691 127.622 452.801 128H450.894C450.816 127.736 450.768 127.462 450.75 127.18C450.463 127.499 450.132 127.745 449.759 127.918C449.385 128.087 449.009 128.171 448.631 128.171C448.029 128.171 447.533 127.975 447.141 127.583C446.749 127.187 446.553 126.678 446.553 126.059C446.553 125.366 446.767 124.812 447.195 124.397C447.628 123.983 448.398 123.732 449.506 123.646C450.44 123.568 451.064 123.475 451.379 123.365C451.461 123.092 451.502 122.873 451.502 122.709C451.502 122.499 451.418 122.324 451.249 122.183C451.08 122.041 450.83 121.971 450.497 121.971C450.146 121.971 449.868 122.044 449.663 122.189C449.463 122.331 449.326 122.534 449.253 122.798ZM451.119 124.616C451.001 124.648 450.843 124.678 450.647 124.705C449.663 124.824 449.021 124.997 448.72 125.225C448.506 125.389 448.398 125.61 448.398 125.888C448.398 126.116 448.48 126.309 448.645 126.469C448.809 126.624 449.025 126.701 449.294 126.701C449.59 126.701 449.868 126.631 450.128 126.489C450.392 126.343 450.588 126.159 450.716 125.936C450.848 125.708 450.964 125.354 451.064 124.876L451.119 124.616ZM455.822 120.74H457.682L457.49 121.684C457.955 121.283 458.388 120.998 458.789 120.829C459.195 120.656 459.621 120.569 460.067 120.569C460.664 120.569 461.134 120.74 461.476 121.082C461.822 121.424 461.995 121.877 461.995 122.442C461.995 122.698 461.92 123.181 461.77 123.892L460.915 128H458.953L459.814 123.878C459.942 123.263 460.006 122.896 460.006 122.777C460.006 122.527 459.931 122.331 459.78 122.189C459.634 122.044 459.429 121.971 459.165 121.971C458.878 121.971 458.559 122.091 458.208 122.333C457.857 122.575 457.581 122.894 457.381 123.29C457.235 123.573 457.071 124.149 456.889 125.02L456.267 128H454.305L455.822 120.74ZM465.604 122.798L463.69 122.634C463.909 121.987 464.29 121.481 464.832 121.116C465.379 120.752 466.101 120.569 466.999 120.569C467.933 120.569 468.624 120.758 469.07 121.137C469.517 121.51 469.74 121.968 469.74 122.511C469.74 122.729 469.72 122.962 469.679 123.208C469.642 123.454 469.508 124.101 469.275 125.149C469.084 126.015 468.988 126.621 468.988 126.968C468.988 127.278 469.043 127.622 469.152 128H467.245C467.168 127.736 467.12 127.462 467.102 127.18C466.814 127.499 466.484 127.745 466.11 127.918C465.737 128.087 465.361 128.171 464.982 128.171C464.381 128.171 463.884 127.975 463.492 127.583C463.1 127.187 462.904 126.678 462.904 126.059C462.904 125.366 463.118 124.812 463.547 124.397C463.98 123.983 464.75 123.732 465.857 123.646C466.792 123.568 467.416 123.475 467.73 123.365C467.812 123.092 467.854 122.873 467.854 122.709C467.854 122.499 467.769 122.324 467.601 122.183C467.432 122.041 467.181 121.971 466.849 121.971C466.498 121.971 466.22 122.044 466.015 122.189C465.814 122.331 465.677 122.534 465.604 122.798ZM467.471 124.616C467.352 124.648 467.195 124.678 466.999 124.705C466.015 124.824 465.372 124.997 465.071 125.225C464.857 125.389 464.75 125.61 464.75 125.888C464.75 126.116 464.832 126.309 464.996 126.469C465.16 126.624 465.377 126.701 465.646 126.701C465.942 126.701 466.22 126.631 466.479 126.489C466.744 126.343 466.94 126.159 467.067 125.936C467.2 125.708 467.316 125.354 467.416 124.876L467.471 124.616ZM470.526 128.383L472.598 128.684C472.598 128.893 472.632 129.05 472.7 129.155C472.769 129.265 472.878 129.356 473.028 129.429C473.183 129.506 473.393 129.545 473.657 129.545C474.072 129.545 474.405 129.463 474.655 129.299C474.842 129.171 474.995 128.966 475.113 128.684C475.186 128.506 475.28 128.118 475.394 127.521L475.462 127.18C474.783 127.745 474.081 128.027 473.356 128.027C472.646 128.027 472.062 127.777 471.606 127.275C471.151 126.774 470.923 126.04 470.923 125.074C470.923 124.222 471.078 123.44 471.388 122.729C471.698 122.019 472.133 121.481 472.693 121.116C473.254 120.752 473.826 120.569 474.409 120.569C474.892 120.569 475.334 120.697 475.735 120.952C476.136 121.207 476.449 121.565 476.672 122.025L476.945 120.74H478.784L477.526 126.79C477.321 127.761 477.148 128.453 477.007 128.868C476.866 129.283 476.704 129.613 476.521 129.859C476.339 130.105 476.109 130.311 475.831 130.475C475.553 130.643 475.225 130.764 474.847 130.837C474.468 130.91 474.058 130.946 473.616 130.946C472.591 130.946 471.816 130.771 471.292 130.42C470.768 130.069 470.506 129.486 470.506 128.67C470.506 128.583 470.513 128.488 470.526 128.383ZM472.837 124.876C472.837 125.427 472.96 125.849 473.206 126.141C473.457 126.428 473.769 126.571 474.143 126.571C474.484 126.571 474.815 126.441 475.134 126.182C475.457 125.922 475.703 125.553 475.872 125.074C476.045 124.596 476.132 124.133 476.132 123.687C476.132 123.172 475.993 122.757 475.715 122.442C475.437 122.128 475.116 121.971 474.751 121.971C474.4 121.971 474.076 122.11 473.78 122.388C473.489 122.666 473.247 123.094 473.056 123.673C472.91 124.119 472.837 124.521 472.837 124.876ZM486.256 124.979H481.334C481.329 125.056 481.327 125.115 481.327 125.156C481.327 125.639 481.464 126.029 481.737 126.325C482.015 126.621 482.353 126.77 482.749 126.77C483.401 126.77 483.909 126.432 484.273 125.758L486.03 126.052C485.688 126.758 485.23 127.289 484.656 127.645C484.087 127.995 483.446 128.171 482.735 128.171C481.76 128.171 480.967 127.863 480.356 127.248C479.746 126.628 479.44 125.81 479.44 124.794C479.44 123.8 479.716 122.916 480.268 122.142C481.02 121.093 482.093 120.569 483.487 120.569C484.376 120.569 485.082 120.845 485.606 121.396C486.131 121.943 486.393 122.711 486.393 123.7C486.393 124.174 486.347 124.6 486.256 124.979ZM484.602 123.782C484.606 123.696 484.608 123.63 484.608 123.584C484.608 123.046 484.488 122.643 484.246 122.374C484.005 122.105 483.681 121.971 483.275 121.971C482.87 121.971 482.505 122.123 482.182 122.429C481.863 122.734 481.646 123.185 481.532 123.782H484.602ZM488.437 120.74H490.282L490.098 121.622C490.818 120.92 491.574 120.569 492.367 120.569C492.914 120.569 493.336 120.683 493.632 120.911C493.928 121.139 494.117 121.453 494.199 121.854C494.45 121.49 494.81 121.185 495.279 120.938C495.749 120.692 496.236 120.569 496.742 120.569C497.321 120.569 497.772 120.724 498.096 121.034C498.419 121.344 498.581 121.754 498.581 122.265C498.581 122.515 498.517 122.948 498.39 123.563L497.46 128H495.498L496.428 123.563C496.542 123.007 496.599 122.693 496.599 122.62C496.599 122.42 496.537 122.262 496.414 122.148C496.296 122.03 496.116 121.971 495.874 121.971C495.386 121.971 494.951 122.228 494.568 122.743C494.29 123.112 494.053 123.766 493.857 124.705L493.167 128H491.205L492.121 123.611C492.226 123.105 492.278 122.777 492.278 122.627C492.278 122.436 492.212 122.278 492.08 122.155C491.952 122.032 491.775 121.971 491.547 121.971C491.333 121.971 491.112 122.035 490.884 122.162C490.656 122.29 490.455 122.465 490.282 122.688C490.114 122.912 489.968 123.199 489.845 123.55C489.79 123.714 489.701 124.085 489.578 124.664L488.881 128H486.919L488.437 120.74ZM506.504 124.979H501.582C501.577 125.056 501.575 125.115 501.575 125.156C501.575 125.639 501.712 126.029 501.985 126.325C502.263 126.621 502.601 126.77 502.997 126.77C503.649 126.77 504.157 126.432 504.521 125.758L506.278 126.052C505.937 126.758 505.479 127.289 504.904 127.645C504.335 127.995 503.694 128.171 502.983 128.171C502.008 128.171 501.215 127.863 500.604 127.248C499.994 126.628 499.688 125.81 499.688 124.794C499.688 123.8 499.964 122.916 500.516 122.142C501.268 121.093 502.341 120.569 503.735 120.569C504.624 120.569 505.33 120.845 505.854 121.396C506.379 121.943 506.641 122.711 506.641 123.7C506.641 124.174 506.595 124.6 506.504 124.979ZM504.85 123.782C504.854 123.696 504.856 123.63 504.856 123.584C504.856 123.046 504.736 122.643 504.494 122.374C504.253 122.105 503.929 121.971 503.523 121.971C503.118 121.971 502.753 122.123 502.43 122.429C502.111 122.734 501.894 123.185 501.78 123.782H504.85ZM508.773 120.74H510.633L510.441 121.684C510.906 121.283 511.339 120.998 511.74 120.829C512.146 120.656 512.572 120.569 513.019 120.569C513.616 120.569 514.085 120.74 514.427 121.082C514.773 121.424 514.946 121.877 514.946 122.442C514.946 122.698 514.871 123.181 514.721 123.892L513.866 128H511.904L512.766 123.878C512.893 123.263 512.957 122.896 512.957 122.777C512.957 122.527 512.882 122.331 512.731 122.189C512.586 122.044 512.381 121.971 512.116 121.971C511.829 121.971 511.51 122.091 511.159 122.333C510.808 122.575 510.533 122.894 510.332 123.29C510.186 123.573 510.022 124.149 509.84 125.02L509.218 128H507.256L508.773 120.74ZM516.279 122.196L516.58 120.74H517.537L517.776 119.578L520.025 118.225L519.499 120.74H520.695L520.395 122.196H519.191L518.556 125.238C518.442 125.79 518.385 126.104 518.385 126.182C518.385 126.332 518.433 126.451 518.528 126.537C518.624 126.619 518.797 126.66 519.048 126.66C519.134 126.66 519.351 126.644 519.697 126.612L519.39 128.068C519.052 128.137 518.706 128.171 518.351 128.171C517.658 128.171 517.154 128.039 516.84 127.774C516.525 127.506 516.368 127.134 516.368 126.66C516.368 126.437 516.452 125.922 516.621 125.115L517.229 122.196H516.279Z" fill="#08151E" fill-opacity="0.85"/>
<rect width="23.0329" height="22.9785" transform="matrix(0.866706 -0.498819 2.21e-08 1 64.9824 249.021)" fill="url(#paint11_linear_44582_26764)"/>
<rect width="23.0329" height="22.9785" transform="matrix(0.866706 0.498819 -2.21e-08 1 45 237.532)" fill="url(#paint12_linear_44582_26764)"/>
<rect width="23.0329" height="23.0329" transform="matrix(0.866706 -0.498819 0.866706 0.498819 45.0742 237.489)" fill="url(#paint13_linear_44582_26764)"/>
<rect width="23.0329" height="22.9785" transform="matrix(0.866706 -0.498819 2.21e-08 1 144.982 249.021)" fill="url(#paint14_linear_44582_26764)"/>
<rect width="23.0329" height="22.9785" transform="matrix(0.866706 0.498819 -2.21e-08 1 125 237.532)" fill="url(#paint15_linear_44582_26764)"/>
<rect width="23.0329" height="23.0329" transform="matrix(0.866706 -0.498819 0.866706 0.498819 125.074 237.489)" fill="url(#paint16_linear_44582_26764)"/>
<rect width="23.0329" height="22.9785" transform="matrix(0.866706 -0.498819 2.21e-08 1 224.982 249.021)" fill="url(#paint17_linear_44582_26764)"/>
<rect width="23.0329" height="22.9785" transform="matrix(0.866706 0.498819 -2.21e-08 1 205 237.532)" fill="url(#paint18_linear_44582_26764)"/>
<rect width="23.0329" height="23.0329" transform="matrix(0.866706 -0.498819 0.866706 0.498819 205.074 237.489)" fill="url(#paint19_linear_44582_26764)"/>
<path d="M203 252L167 252" stroke="#615C85" stroke-width="1.4" stroke-linecap="round" stroke-linejoin="round"/>
<path d="M123 252L87 252" stroke="#615C85" stroke-width="1.4" stroke-linecap="round" stroke-linejoin="round"/>
<rect x="222" width="178" height="107" rx="6" fill="#F6F6FA"/>
<path d="M222 6C222 2.68629 224.686 0 228 0H400V18C400 21.3137 397.314 24 394 24H222V6Z" fill="#FAB95B" fill-opacity="0.2"/>
<path d="M228.521 16L230.32 7.41016H232.635C233.279 7.41016 233.691 7.41992 233.871 7.43945C234.227 7.47461 234.543 7.54688 234.82 7.65625C235.102 7.76562 235.355 7.91992 235.582 8.11914C235.812 8.31445 236.01 8.55078 236.174 8.82812C236.342 9.10547 236.471 9.42578 236.561 9.78906C236.65 10.1484 236.695 10.543 236.695 10.9727C236.695 11.8984 236.518 12.7207 236.162 13.4395C235.811 14.1543 235.367 14.7227 234.832 15.1445C234.422 15.4727 233.893 15.7148 233.244 15.8711C232.877 15.957 232.312 16 231.551 16H228.521ZM230.578 14.6172H231.475C232.123 14.6172 232.592 14.5781 232.881 14.5C233.174 14.418 233.441 14.2676 233.684 14.0488C234.031 13.7324 234.324 13.3105 234.562 12.7832C234.801 12.2559 234.92 11.6348 234.92 10.9199C234.92 10.3105 234.82 9.85352 234.621 9.54883C234.426 9.24023 234.184 9.03516 233.895 8.93359C233.691 8.86328 233.33 8.82812 232.811 8.82812H231.785L230.578 14.6172ZM242.789 14.1016H239.385L238.354 16H236.537L241.395 7.41016H243.357L244.752 16H243.076L242.789 14.1016ZM242.572 12.6719L242.074 9.21484L240 12.6719H242.572ZM247.6 16H245.83L247.629 7.41016H251.121C251.742 7.41016 252.232 7.48438 252.592 7.63281C252.955 7.77734 253.242 8.01953 253.453 8.35938C253.664 8.69531 253.77 9.09766 253.77 9.56641C253.77 10 253.686 10.4219 253.518 10.832C253.35 11.2422 253.143 11.5703 252.896 11.8164C252.654 12.0625 252.393 12.25 252.111 12.3789C251.83 12.5039 251.451 12.5996 250.975 12.666C250.697 12.7051 250.178 12.7246 249.416 12.7246H248.285L247.6 16ZM248.578 11.3008H249.123C250.057 11.3008 250.68 11.2422 250.992 11.125C251.305 11.0078 251.551 10.8203 251.73 10.5625C251.91 10.3047 252 10.0215 252 9.71289C252 9.50586 251.953 9.33594 251.859 9.20312C251.77 9.07031 251.641 8.97461 251.473 8.91602C251.309 8.85352 250.939 8.82227 250.365 8.82227H249.1L248.578 11.3008ZM255.604 16H253.834L255.633 7.41016H259.125C259.746 7.41016 260.236 7.48438 260.596 7.63281C260.959 7.77734 261.246 8.01953 261.457 8.35938C261.668 8.69531 261.773 9.09766 261.773 9.56641C261.773 10 261.689 10.4219 261.521 10.832C261.354 11.2422 261.146 11.5703 260.9 11.8164C260.658 12.0625 260.396 12.25 260.115 12.3789C259.834 12.5039 259.455 12.5996 258.979 12.666C258.701 12.7051 258.182 12.7246 257.42 12.7246H256.289L255.604 16ZM256.582 11.3008H257.127C258.061 11.3008 258.684 11.2422 258.996 11.125C259.309 11.0078 259.555 10.8203 259.734 10.5625C259.914 10.3047 260.004 10.0215 260.004 9.71289C260.004 9.50586 259.957 9.33594 259.863 9.20312C259.773 9.07031 259.645 8.97461 259.477 8.91602C259.312 8.85352 258.943 8.82227 258.369 8.82227H257.104L256.582 11.3008Z" fill="#08151E"/>
<rect width="25.4615" height="25.4615" transform="matrix(0.866025 -0.5 0.866025 0.5 289 76.269)" stroke="url(#paint20_linear_44582_26764)" stroke-width="7" stroke-linejoin="bevel"/>
<rect width="17.6234" height="17.6234" transform="matrix(0.866025 -0.5 2.20305e-08 1 311.008 63.4233)" fill="url(#paint21_linear_44582_26764)"/>
<rect width="17.6234" height="17.6234" transform="matrix(0.866025 0.5 -2.20305e-08 1 295.745 54.6116)" fill="url(#paint22_linear_44582_26764)"/>
<g style="mix-blend-mode:darken">
<rect width="17.6234" height="17.6234" transform="matrix(0.866025 -0.5 0.866025 0.5 295.745 54.6116)" fill="url(#paint23_linear_44582_26764)"/>
</g>
<g style="mix-blend-mode:screen" opacity="0.4">
<rect width="17.6234" height="17.6234" transform="matrix(0.866025 -0.5 0.866025 0.5 295.803 61.1211)" fill="url(#paint24_linear_44582_26764)"/>
</g>
<g style="mix-blend-mode:screen" opacity="0.4">
<rect width="17.6234" height="17.6234" transform="matrix(0.866025 -0.5 0.866025 0.5 295.803 67.4548)" fill="url(#paint25_linear_44582_26764)"/>
</g>
<rect width="25.4521" height="25.3914" transform="matrix(0.866025 -0.5 0.866025 0.5 289 50.7261)" stroke="url(#paint26_linear_44582_26764)" stroke-width="7" stroke-linejoin="bevel"/>
<rect width="25.3914" height="25.5741" transform="matrix(0.866025 -0.5 2.20305e-08 1 311.111 63.4216)" stroke="url(#paint27_linear_44582_26764)" stroke-width="7" stroke-linejoin="bevel"/>
<path d="M289 53.8779C289 52.2211 290.163 51.5495 291.598 52.3779L308.27 62.0035C309.705 62.8319 310.868 64.8466 310.868 66.5035L310.868 85.8737C310.868 87.5306 309.705 88.2022 308.27 87.3737L291.598 77.7482C290.163 76.9197 289 74.905 289 73.2482L289 53.8779Z" stroke="url(#paint28_linear_44582_26764)" stroke-width="7" stroke-linejoin="round"/>
<defs>
<linearGradient id="paint0_linear_44582_26764" x1="313" y1="135.251" x2="130" y2="135.251" gradientUnits="userSpaceOnUse">
<stop stop-color="#4C49F5" stop-opacity="0"/>
<stop offset="1" stop-color="#4C49F5"/>
</linearGradient>
<linearGradient id="paint1_linear_44582_26764" x1="494" y1="135.249" x2="311" y2="135.249" gradientUnits="userSpaceOnUse">
<stop stop-color="#4C49F5"/>
<stop offset="1" stop-color="#4C49F5" stop-opacity="0"/>
</linearGradient>
<linearGradient id="paint2_linear_44582_26764" x1="33.0373" y1="4.94506" x2="32.4156" y2="-3.3839" gradientUnits="userSpaceOnUse">
<stop stop-color="#89AAF8"/>
<stop offset="1" stop-color="#2C62F3"/>
</linearGradient>
<linearGradient id="paint3_linear_44582_26764" x1="33.0373" y1="4.94506" x2="32.4156" y2="-3.3839" gradientUnits="userSpaceOnUse">
<stop stop-color="#89AAF8"/>
<stop offset="1" stop-color="#2C62F3"/>
</linearGradient>
<linearGradient id="paint4_linear_44582_26764" x1="0.199389" y1="-0.319584" x2="32.5056" y2="31.9867" gradientUnits="userSpaceOnUse">
<stop stop-color="#89AAF8"/>
<stop offset="1" stop-color="#5280FA"/>
</linearGradient>
<linearGradient id="paint5_linear_44582_26764" x1="33.0373" y1="4.94506" x2="32.4156" y2="-3.3839" gradientUnits="userSpaceOnUse">
<stop stop-color="#89AAF8"/>
<stop offset="1" stop-color="#2C62F3"/>
</linearGradient>
<linearGradient id="paint6_linear_44582_26764" x1="33.0373" y1="4.94506" x2="32.4156" y2="-3.3839" gradientUnits="userSpaceOnUse">
<stop stop-color="#89AAF8"/>
<stop offset="1" stop-color="#2C62F3"/>
</linearGradient>
<linearGradient id="paint7_linear_44582_26764" x1="0.199389" y1="-0.319584" x2="32.5056" y2="31.9867" gradientUnits="userSpaceOnUse">
<stop stop-color="#89AAF8"/>
<stop offset="1" stop-color="#5280FA"/>
</linearGradient>
<linearGradient id="paint8_linear_44582_26764" x1="33.0373" y1="4.94506" x2="32.4156" y2="-3.3839" gradientUnits="userSpaceOnUse">
<stop stop-color="#89AAF8"/>
<stop offset="1" stop-color="#2C62F3"/>
</linearGradient>
<linearGradient id="paint9_linear_44582_26764" x1="33.0373" y1="4.94506" x2="32.4156" y2="-3.3839" gradientUnits="userSpaceOnUse">
<stop stop-color="#89AAF8"/>
<stop offset="1" stop-color="#2C62F3"/>
</linearGradient>
<linearGradient id="paint10_linear_44582_26764" x1="0.199389" y1="-0.319584" x2="32.5056" y2="31.9867" gradientUnits="userSpaceOnUse">
<stop stop-color="#89AAF8"/>
<stop offset="1" stop-color="#5280FA"/>
</linearGradient>
<linearGradient id="paint11_linear_44582_26764" x1="21.1112" y1="-0.990837" x2="-6.27415" y2="28.7184" gradientUnits="userSpaceOnUse">
<stop stop-color="#343372"/>
<stop offset="1" stop-color="#7E7999"/>
</linearGradient>
<linearGradient id="paint12_linear_44582_26764" x1="-1.37446e-07" y1="0.430025" x2="22.6366" y2="17.6965" gradientUnits="userSpaceOnUse">
<stop stop-color="#37346C"/>
<stop offset="1" stop-color="#787394"/>
</linearGradient>
<linearGradient id="paint13_linear_44582_26764" x1="30.479" y1="-7.5742" x2="-0.081737" y2="22.9944" gradientUnits="userSpaceOnUse">
<stop stop-color="#565379"/>
<stop offset="1" stop-color="#777292"/>
</linearGradient>
<linearGradient id="paint14_linear_44582_26764" x1="21.1112" y1="-0.990837" x2="-6.27415" y2="28.7184" gradientUnits="userSpaceOnUse">
<stop stop-color="#343372"/>
<stop offset="1" stop-color="#7E7999"/>
</linearGradient>
<linearGradient id="paint15_linear_44582_26764" x1="-1.37446e-07" y1="0.430025" x2="22.6366" y2="17.6965" gradientUnits="userSpaceOnUse">
<stop stop-color="#37346C"/>
<stop offset="1" stop-color="#787394"/>
</linearGradient>
<linearGradient id="paint16_linear_44582_26764" x1="30.479" y1="-7.5742" x2="-0.081737" y2="22.9944" gradientUnits="userSpaceOnUse">
<stop stop-color="#565379"/>
<stop offset="1" stop-color="#777292"/>
</linearGradient>
<linearGradient id="paint17_linear_44582_26764" x1="21.1112" y1="-0.990837" x2="-6.27415" y2="28.7184" gradientUnits="userSpaceOnUse">
<stop stop-color="#343372"/>
<stop offset="1" stop-color="#7E7999"/>
</linearGradient>
<linearGradient id="paint18_linear_44582_26764" x1="-1.37446e-07" y1="0.430025" x2="22.6366" y2="17.6965" gradientUnits="userSpaceOnUse">
<stop stop-color="#37346C"/>
<stop offset="1" stop-color="#787394"/>
</linearGradient>
<linearGradient id="paint19_linear_44582_26764" x1="30.479" y1="-7.5742" x2="-0.081737" y2="22.9944" gradientUnits="userSpaceOnUse">
<stop stop-color="#565379"/>
<stop offset="1" stop-color="#777292"/>
</linearGradient>
<linearGradient id="paint20_linear_44582_26764" x1="12.7308" y1="0" x2="12.7308" y2="25.4615" gradientUnits="userSpaceOnUse">
<stop stop-color="#FFCF24" stop-opacity="0.74"/>
<stop offset="1" stop-color="#E04F52"/>
<stop offset="1" stop-color="#FF7B33"/>
</linearGradient>
<linearGradient id="paint21_linear_44582_26764" x1="20.934" y1="9.24431" x2="2.30478" y2="22.5247" gradientUnits="userSpaceOnUse">
<stop stop-color="#FF7C32"/>
<stop offset="1" stop-color="#CB3068"/>
</linearGradient>
<linearGradient id="paint22_linear_44582_26764" x1="21.1774" y1="-4.98124" x2="-8.58801" y2="-3.20009" gradientUnits="userSpaceOnUse">
<stop stop-color="#E7702E"/>
<stop offset="1" stop-color="#CB3068"/>
</linearGradient>
<linearGradient id="paint23_linear_44582_26764" x1="14.0209" y1="14.0209" x2="12.8021" y2="-6.84046" gradientUnits="userSpaceOnUse">
<stop stop-color="#FF7C32"/>
<stop offset="1" stop-color="#CB3068"/>
</linearGradient>
<linearGradient id="paint24_linear_44582_26764" x1="14.0209" y1="14.0209" x2="12.8021" y2="-6.84046" gradientUnits="userSpaceOnUse">
<stop stop-color="#FF7C32"/>
<stop offset="1" stop-color="#CB3068"/>
</linearGradient>
<linearGradient id="paint25_linear_44582_26764" x1="14.0209" y1="14.0209" x2="12.8021" y2="-6.84046" gradientUnits="userSpaceOnUse">
<stop stop-color="#FF7C32"/>
<stop offset="1" stop-color="#CB3068"/>
</linearGradient>
<linearGradient id="paint26_linear_44582_26764" x1="12.7261" y1="0" x2="12.7261" y2="25.3914" gradientUnits="userSpaceOnUse">
<stop stop-color="#FFCF24" stop-opacity="0.74"/>
<stop offset="1" stop-color="#E04F52"/>
<stop offset="1" stop-color="#FF7B33"/>
</linearGradient>
<linearGradient id="paint27_linear_44582_26764" x1="12.6957" y1="0" x2="12.6957" y2="25.5741" gradientUnits="userSpaceOnUse">
<stop stop-color="#FFCF24" stop-opacity="0.74"/>
<stop offset="1" stop-color="#E04F52"/>
<stop offset="1" stop-color="#FF7B33"/>
</linearGradient>
<linearGradient id="paint28_linear_44582_26764" x1="299.934" y1="57.1907" x2="288.948" y2="76.2184" gradientUnits="userSpaceOnUse">
<stop stop-color="#FFCF24" stop-opacity="0.74"/>
<stop offset="1" stop-color="#E04F52"/>
<stop offset="1" stop-color="#FF7B33"/>
</linearGradient>
</defs>
</svg>
